<svg width="54" height="54" viewBox="0 0 54 54" fill="none" xmlns="http://www.w3.org/2000/svg">
<g id="Frame 33">
<path id="Vector" d="M5 5H49V49H5V5Z" fill="#F7DF1E"/>
<path id="Vector_2" d="M17.0002 42.1433L20.3667 40.0646C21.0162 41.2395 21.607 42.2336 23.0243 42.2336C24.3827 42.2336 25.2394 41.6915 25.2394 39.5827V25.2413H29.3735V39.6423C29.3735 44.0109 26.8635 45.9995 23.2014 45.9995C19.8942 45.9995 17.9745 44.252 17 42.143M31.619 41.6913L34.9851 39.7029C35.8714 41.1794 37.0231 42.2639 39.0605 42.2639C40.7736 42.2639 41.8659 41.3901 41.8659 40.1849C41.8659 38.7388 40.7437 38.2265 38.8538 37.3832L37.8204 36.9308C34.8377 35.6357 32.8592 34.0087 32.8592 30.574C32.8592 27.4104 35.2216 25 38.913 25C41.5413 25 43.4312 25.9341 44.7895 28.3745L41.5705 30.4837C40.8616 29.1882 40.0941 28.6761 38.9129 28.6761C37.702 28.6761 36.9342 29.4594 36.9342 30.4837C36.9342 31.749 37.702 32.2615 39.4738 33.0449L40.5073 33.4967C44.0215 35.0335 46 36.6 46 40.1248C46 43.9213 43.0765 46 39.149 46C35.3101 46 32.8295 44.1321 31.6188 41.6915" fill="black"/>
</g>
</svg>
