<svg width="22" height="22" viewBox="0 0 22 22" fill="none" xmlns="http://www.w3.org/2000/svg">
<g id="iconoir:lock">
<path id="Vector" d="M14.5 11H15.725C15.8642 11 15.9978 11.0553 16.0962 11.1538C16.1947 11.2522 16.25 11.3858 16.25 11.525V17.475C16.25 17.6142 16.1947 17.7478 16.0962 17.8462C15.9978 17.9447 15.8642 18 15.725 18H6.275C6.13576 18 6.00223 17.9447 5.90377 17.8462C5.80531 17.7478 5.75 17.6142 5.75 17.475V11.525C5.75 11.3858 5.80531 11.2522 5.90377 11.1538C6.00223 11.0553 6.13576 11 6.275 11H7.5M14.5 11V7.5C14.5 6.33363 13.8 4 11 4C8.2 4 7.5 6.33363 7.5 7.5V11M14.5 11H7.5" stroke="#181818" stroke-width="1.5" stroke-linecap="round" stroke-linejoin="round"/>
</g>
</svg>
