<svg width="160" height="160" viewBox="0 0 160 160" fill="none" xmlns="http://www.w3.org/2000/svg">
<g id="Frame 23">
<rect width="160" height="160" rx="20" fill="white"/>
<path id="Triangles" d="M86.16 117H127.23C128.541 117 129.795 116.54 130.93 115.89C132.065 115.24 133.235 114.425 133.89 113.3C134.545 112.175 135.001 110.899 135 109.6C134.999 108.301 134.546 107.025 133.89 105.9L106.14 58.17C105.485 57.0452 104.685 56.2294 103.55 55.58C102.415 54.9306 100.79 54.47 99.48 54.47C98.1696 54.47 96.9148 54.9306 95.78 55.58C94.6452 56.2294 93.845 57.0452 93.19 58.17L86.16 70.38L72.1 46.6991C71.4445 45.5744 70.6451 44.3893 69.51 43.74C68.3749 43.0907 67.1206 43 65.81 43C64.4994 43 63.2451 43.0907 62.11 43.74C60.9749 44.3893 59.8055 45.5744 59.15 46.6991L24.74 105.9C24.084 107.025 24.0006 108.301 24 109.6C23.9994 110.899 24.085 112.175 24.74 113.3C25.395 114.425 26.565 115.24 27.7 115.89C28.835 116.54 30.0894 117 31.4 117H57.3C67.5626 117 75.0323 112.396 80.24 103.68L92.82 81.85L99.48 70.38L119.83 105.16H92.82L86.16 117ZM56.93 105.16H38.8L65.81 58.54L79.5 81.85L70.4318 97.6582C66.9734 103.314 63.0304 105.16 56.93 105.16Z" fill="#00DC82"/>
</g>
</svg>
