<svg width="166" height="150" viewBox="0 0 166 150" fill="none" xmlns="http://www.w3.org/2000/svg">
<path d="M92 125H147.5C149.271 125 150.966 124.378 152.5 123.5C154.034 122.622 155.615 121.52 156.5 120C157.385 118.48 158.001 116.755 158 114.999C157.999 113.244 157.387 111.52 156.5 110L119 45.5C118.115 43.98 117.033 42.8776 115.5 42C113.967 41.1224 111.771 40.5 110 40.5C108.229 40.5 106.533 41.1224 105 42C103.467 42.8776 102.385 43.98 101.5 45.5L92 62L73 29.9988C72.1141 28.4789 71.0339 26.8775 69.5 26C67.9661 25.1225 66.271 25 64.5 25C62.729 25 61.0339 25.1225 59.5 26C57.9661 26.8775 56.3859 28.4789 55.5 29.9988L9 110C8.11349 111.52 8.00077 113.244 8 114.999C7.99923 116.755 8.11482 118.479 9 120C9.88518 121.52 11.4662 122.622 13 123.5C14.5338 124.378 16.2289 125 18 125H53C66.8683 125 76.9626 118.779 84 107L101 77.5L110 62L137.5 109H101L92 125ZM52.5 109H28L64.5 46L83 77.5L70.7457 98.8624C66.0722 106.505 60.7438 109 52.5 109Z" fill="#00DC82"/>
</svg>
