<svg width="50" height="50" viewBox="0 0 50 50" fill="none" xmlns="http://www.w3.org/2000/svg">
<g id="Frame 28">
<rect width="49.98" height="49.98" rx="12" fill="white"/>
<g id="Layer_x0020_3">
<path id="Vector" d="M32.4375 32.0716C32.6345 30.4302 32.5755 30.1895 33.798 30.4554L34.1084 30.4827C35.0485 30.5254 36.2782 30.3315 37.0006 29.9959C38.5558 29.2742 39.478 28.0694 37.9445 28.386C34.4466 29.1076 34.2061 27.9232 34.2061 27.9232C37.8997 22.4427 39.4438 15.4858 38.111 13.7829C34.4758 9.13802 28.1835 11.3345 28.0782 11.3915L28.0446 11.3977C27.3535 11.2543 26.58 11.1686 25.7111 11.1546C24.1282 11.1286 22.927 11.5696 22.0159 12.2606C22.0159 12.2606 10.7906 7.63597 11.3128 18.0766C11.4239 20.2977 14.4964 34.8828 18.161 30.4774C19.5004 28.8665 20.7948 27.5044 20.7948 27.5044C21.4376 27.9314 22.2071 28.1493 23.0142 28.071L23.0765 28.0178C23.057 28.2178 23.0656 28.4135 23.1015 28.6451C22.1576 29.6999 22.435 29.8851 20.5476 30.2735C18.6381 30.6671 19.7599 31.3678 20.4921 31.5509C21.3801 31.773 23.4343 32.0875 24.8226 30.1444L24.7674 30.3661C25.1377 30.6624 25.1126 32.4955 25.1652 33.8053C25.2177 35.1151 25.3054 36.3374 25.5724 37.058C25.8394 37.7785 26.1544 39.6347 28.6349 39.1031C30.708 38.6589 32.2931 38.0195 32.4375 32.0716Z" fill="black" stroke="black"/>
<path id="Vector_2" d="M37.945 28.3858C34.4467 29.1074 34.2062 27.923 34.2062 27.923C37.8998 22.4422 39.4439 15.4852 38.1114 13.7825C34.4762 9.13784 28.1835 11.3345 28.0785 11.3915L28.0447 11.3975C27.3536 11.2541 26.5801 11.1686 25.7108 11.1544C24.1278 11.1285 22.9271 11.5694 22.016 12.2603C22.016 12.2603 10.7905 7.63585 11.3126 18.0765C11.4236 20.2976 14.4961 34.8827 18.1609 30.4773C19.5003 28.8664 20.7945 27.5044 20.7945 27.5044C21.4373 27.9314 22.2068 28.1492 23.0136 28.071L23.0762 28.0178C23.0568 28.2178 23.0657 28.4134 23.1013 28.645C22.1572 29.6998 22.4347 29.885 20.5474 30.2735C18.6377 30.6671 19.7596 31.3677 20.492 31.5509C21.38 31.7729 23.4343 32.0875 24.8224 30.1444L24.767 30.3661C25.1369 30.6623 25.3967 32.2933 25.3532 33.7717C25.3096 35.2501 25.2806 36.2652 25.572 37.058C25.8635 37.8508 26.154 39.6347 28.635 39.1031C30.7081 38.6588 31.7823 37.5075 31.9318 35.5872C32.0379 34.2219 32.2779 34.4237 32.293 33.2031L32.4855 32.6253C32.7075 30.7746 32.5208 30.1775 33.798 30.4552L34.1084 30.4825C35.0484 30.5253 36.2788 30.3313 37.0009 29.9957C38.5558 29.2741 39.478 28.0692 37.9448 28.3858H37.945Z" fill="#336791"/>
<path id="Vector_3" d="M24.9725 29.4467C24.8762 32.8903 24.9967 36.358 25.3337 37.2007C25.6708 38.0435 26.3924 39.6827 28.8736 39.1511C30.9465 38.7067 31.7007 37.8467 32.028 35.9485C32.269 34.5518 32.7337 30.6731 32.7933 29.8784" stroke="white" stroke-linecap="round" stroke-linejoin="round"/>
<path id="Vector_4" d="M21.9986 12.1834C21.9986 12.1834 10.7655 7.59227 11.2877 18.0329C11.3987 20.254 14.4714 34.8396 18.1361 30.434C19.4753 28.8229 20.6864 27.5594 20.6864 27.5594" stroke="white" stroke-linecap="round" stroke-linejoin="round"/>
<path id="Vector_5" d="M28.0662 11.3455C27.6773 11.4674 34.3147 8.91906 38.0868 13.739C39.4193 15.4418 37.8752 22.3988 34.1816 27.8797" stroke="white" stroke-linecap="round" stroke-linejoin="round"/>
<path id="Vector_6" d="M34.1816 27.8798C34.1816 27.8798 34.4223 29.0645 37.9206 28.3424C39.4534 28.0259 38.531 29.2308 36.9764 29.9528C35.7006 30.5449 32.8402 30.6966 32.7935 29.8784C32.6733 27.7674 34.2989 28.4087 34.1816 27.8798ZM34.1816 27.8798C34.0755 27.4034 33.3486 26.9358 32.8676 25.7699C32.4478 24.7522 27.1095 16.948 34.3481 18.1071C34.6132 18.0522 32.4602 11.2219 25.6859 11.1108C18.9132 10.9997 19.1354 19.4398 19.1354 19.4398" stroke="white" stroke-linecap="round" stroke-linejoin="bevel"/>
<path id="Vector_7" d="M23.0766 28.6017C22.1323 29.6564 22.41 29.8416 20.5226 30.2302C18.613 30.6239 19.735 31.3244 20.4672 31.5074C21.3552 31.7296 23.4095 32.0442 24.7976 30.1006C25.2203 29.5088 24.7951 28.5646 24.2144 28.3239C23.9339 28.2077 23.5587 28.0621 23.0766 28.6017Z" stroke="white" stroke-linecap="round" stroke-linejoin="round"/>
<path id="Vector_8" d="M23.0148 28.5833C22.9197 27.9631 23.2186 27.2252 23.5389 26.3618C24.0203 25.0665 25.131 23.7709 24.2425 19.6618C23.5802 16.5998 19.1381 19.0246 19.1353 19.4398C19.1326 19.8548 19.3362 21.5442 19.0611 23.5116C18.7021 26.0787 20.6946 28.2499 22.989 28.0277" stroke="white" stroke-linecap="round" stroke-linejoin="round"/>
<path id="Vector_9" d="M21.9578 19.3775C21.9378 19.5193 22.2174 19.8977 22.582 19.9483C22.946 19.999 23.2576 19.7033 23.2774 19.5617C23.2971 19.4199 23.0178 19.2637 22.6531 19.2129C22.2888 19.1621 21.9771 19.2361 21.9579 19.3775H21.9578Z" fill="white" stroke="white"/>
<path id="Vector_10" d="M33.0451 19.0884C33.0649 19.2302 32.7856 19.6086 32.4209 19.6592C32.0566 19.7099 31.745 19.4142 31.7251 19.2726C31.7058 19.1308 31.9852 18.9746 32.3495 18.9238C32.7139 18.873 33.0254 18.947 33.0451 19.0885V19.0884Z" fill="white" stroke="white"/>
<path id="Vector_11" d="M34.348 18.1071C34.408 19.2194 34.1084 19.9771 34.0707 21.1612C34.0147 22.8823 34.8912 24.8522 33.5706 26.8246" stroke="white" stroke-linecap="round" stroke-linejoin="round"/>
</g>
</g>
</svg>
