<svg width="73" height="75" viewBox="0 0 73 75" fill="none" xmlns="http://www.w3.org/2000/svg">
<g id="Frame 36">
<g id="Layer_x0020_3">
<path id="Vector" d="M51.199 51.4522C51.6011 48.1025 51.4806 47.6113 53.9756 48.1539L54.6091 48.2095C56.5275 48.2968 59.0372 47.901 60.5115 47.216C63.6854 45.7434 65.5674 43.2845 62.4378 43.9306C55.2991 45.4033 54.8083 42.9861 54.8083 42.9861C62.3464 31.8015 65.4976 17.6038 62.7776 14.1284C55.3589 4.64904 42.5173 9.13163 42.3024 9.24802L42.234 9.26065C40.8235 8.96799 39.2449 8.79313 37.4716 8.76446C34.2412 8.71138 31.7899 9.61136 29.9304 11.0217C29.9304 11.0217 7.0217 1.58362 8.08746 22.8911C8.31412 27.4238 14.5846 57.1894 22.0634 48.1988C24.7968 44.9112 27.4384 42.1315 27.4384 42.1315C28.7502 43.003 30.3206 43.4475 31.9677 43.2878L32.095 43.1792C32.0551 43.5874 32.0727 43.9867 32.146 44.4593C30.2197 46.612 30.7857 46.9899 26.9339 47.7828C23.0369 48.5859 25.3264 50.0159 26.8207 50.3896C28.6329 50.8428 32.8251 51.4847 35.6585 47.5192L35.5456 47.9717C36.3014 48.5763 36.2503 52.3174 36.3575 54.9904C36.4648 57.6635 36.6438 60.158 37.1886 61.6287C37.7335 63.0991 38.3765 66.8872 43.4387 65.8023C47.6695 64.8956 50.9042 63.5909 51.199 51.4522Z" fill="black" stroke="black"/>
<path id="Vector_2" d="M62.4385 43.9302C55.2991 45.4029 54.8083 42.9857 54.8083 42.9857C62.3464 31.8004 65.4975 17.6024 62.7781 14.1275C55.3594 4.64865 42.5172 9.13153 42.3029 9.24792L42.2339 9.26026C40.8234 8.96746 39.2449 8.79303 37.4708 8.76407C34.2403 8.71113 31.7898 9.61097 29.9304 11.0211C29.9304 11.0211 7.02123 1.58337 8.0867 22.8907C8.31337 27.4237 14.5837 57.1893 22.0628 48.1987C24.7963 44.9111 27.4375 42.1314 27.4375 42.1314C28.7494 43.0029 30.3199 43.4474 31.9663 43.2877L32.0941 43.1791C32.0544 43.5873 32.0726 43.9866 32.1454 44.4592C30.2187 46.6119 30.7848 46.9898 26.9333 47.7827C23.036 48.5858 25.3255 50.0158 26.8203 50.3895C28.6324 50.8427 32.8249 51.4846 35.6577 47.5191L35.5448 47.9716C36.2997 48.5762 36.8298 51.9046 36.7409 54.9218C36.6521 57.9391 36.5928 60.0106 37.1876 61.6286C37.7824 63.2466 38.3753 66.8871 43.4385 65.8022C47.6693 64.8955 49.8617 62.546 50.1667 58.6269C50.3832 55.8406 50.873 56.2525 50.9039 53.7615L51.2968 52.5822C51.7498 48.8053 51.3687 47.5868 53.9753 48.1535L54.6087 48.2092C56.5272 48.2965 59.0381 47.9006 60.5118 47.2157C63.6851 45.743 65.5671 43.2842 62.4382 43.9302H62.4385Z" fill="#336791"/>
<path id="Vector_3" d="M35.9643 46.0953C35.7677 53.1231 36.0137 60.1999 36.7013 61.9198C37.3894 63.6398 38.862 66.9851 43.9256 65.9003C48.156 64.9933 49.6952 63.2382 50.3632 59.3642C50.8551 56.514 51.8035 48.5982 51.9251 46.9764" stroke="white" stroke-linecap="round" stroke-linejoin="round"/>
<path id="Vector_4" d="M29.8951 10.8641C29.8951 10.8641 6.97028 1.49443 8.03604 22.8018C8.2627 27.3348 14.5335 57.1013 22.0124 48.1103C24.7454 44.8223 27.2171 42.2436 27.2171 42.2436" stroke="white" stroke-linecap="round" stroke-linejoin="round"/>
<path id="Vector_5" d="M42.2779 9.15399C41.4843 9.4028 55.0301 4.20217 62.7282 14.0388C65.4475 17.5139 62.2964 31.7119 54.7584 42.8974" stroke="white" stroke-linecap="round" stroke-linejoin="round"/>
<path id="Vector_6" d="M54.7582 42.8975C54.7582 42.8975 55.2494 45.3154 62.389 43.8417C65.5171 43.1957 63.6345 45.6547 60.462 47.1281C57.8583 48.3365 52.0208 48.6462 51.9254 46.9764C51.68 42.6681 54.9976 43.977 54.7582 42.8975ZM54.7582 42.8975C54.5418 41.9252 53.0582 40.971 52.0767 38.5916C51.2199 36.5147 40.3254 20.5878 55.098 22.9532C55.6392 22.8412 51.2451 8.90179 37.4201 8.67513C23.5982 8.44847 24.0516 25.673 24.0516 25.673" stroke="white" stroke-linecap="round" stroke-linejoin="bevel"/>
<path id="Vector_7" d="M32.095 44.3708C30.168 46.5233 30.7348 46.9012 26.8829 47.6944C22.9856 48.4977 25.2754 49.9273 26.7698 50.3009C28.582 50.7544 32.7745 51.3963 35.6072 47.4298C36.4699 46.2221 35.6021 44.2951 34.4172 43.8039C33.8446 43.5667 33.079 43.2695 32.095 44.3708Z" stroke="white" stroke-linecap="round" stroke-linejoin="round"/>
<path id="Vector_8" d="M31.9688 44.3332C31.7747 43.0676 32.3847 41.5616 33.0384 39.7997C34.0208 37.1561 36.2876 34.512 34.4743 26.1262C33.1227 19.8771 24.0572 24.8257 24.0515 25.673C24.046 26.5201 24.4615 29.9678 23.9001 33.9828C23.1674 39.2219 27.2337 43.6528 31.9162 43.1995" stroke="white" stroke-linecap="round" stroke-linejoin="round"/>
<path id="Vector_9" d="M29.8118 25.5459C29.7709 25.8353 30.3416 26.6076 31.0857 26.7108C31.8286 26.8144 32.4644 26.2109 32.5048 25.9218C32.5451 25.6324 31.9751 25.3136 31.2306 25.21C30.4873 25.1062 29.8512 25.2572 29.8119 25.5459H29.8118Z" fill="white" stroke="white"/>
<path id="Vector_10" d="M52.4389 24.9559C52.4793 25.2453 51.9093 26.0176 51.165 26.1208C50.4215 26.2244 49.7857 25.6209 49.745 25.3318C49.7056 25.0424 50.2758 24.7236 51.0194 24.62C51.7629 24.5164 52.3986 24.6673 52.4389 24.9561V24.9559Z" fill="white" stroke="white"/>
<path id="Vector_11" d="M55.098 22.9533C55.2205 25.2233 54.609 26.7695 54.532 29.186C54.4179 32.6985 56.2066 36.7189 53.5114 40.7442" stroke="white" stroke-linecap="round" stroke-linejoin="round"/>
</g>
</g>
</svg>
