<svg width="39" height="40" viewBox="0 0 39 40" fill="none" xmlns="http://www.w3.org/2000/svg">
<g id="Frame 34">
<g id="Clip path group">
<mask id="mask0_33_118" style="mask-type:luminance" maskUnits="userSpaceOnUse" x="0" y="8" width="39" height="24">
<g id="prefix__clip0">
<path id="Vector" d="M0 8H38.74V31.2298H0V8Z" fill="white"/>
</g>
</mask>
<g mask="url(#mask0_33_118)">
<g id="Group">
<path id="Vector_2" fill-rule="evenodd" clip-rule="evenodd" d="M19.37 8C14.2047 8 10.9763 10.5811 9.685 15.7433C11.622 13.1622 13.8818 12.1943 16.4645 12.8395C17.9381 13.2074 18.9912 14.2764 20.157 15.4586C22.056 17.3851 24.2541 19.6149 29.055 19.6149C34.2203 19.6149 37.4487 17.0338 38.74 11.8716C36.803 14.4527 34.5432 15.4206 31.9605 14.7754C30.4869 14.4076 29.4338 13.3386 28.268 12.1563C26.369 10.2298 24.1709 8 19.37 8ZM9.685 19.6149C4.51967 19.6149 1.29133 22.196 0 27.3582C1.937 24.7771 4.19683 23.8092 6.7795 24.4545C8.25305 24.823 9.30621 25.8913 10.472 27.0735C12.371 29 14.5691 31.2298 19.37 31.2298C24.5353 31.2298 27.7637 28.6487 29.055 23.4865C27.118 26.0676 24.8582 27.0355 22.2755 26.3903C20.8019 26.0225 19.7488 24.9535 18.583 23.7712C16.684 21.8447 14.4859 19.6149 9.685 19.6149Z" fill="#38BDF8"/>
</g>
</g>
</g>
</g>
</svg>
