<svg width="116" height="116" viewBox="0 0 116 116" fill="none" xmlns="http://www.w3.org/2000/svg">
<g id="Frame 32">
<g id="Group 91">
<path id="Vector" d="M100.188 8H15.8125C11.4978 8 8 11.4978 8 15.8125V100.188C8 104.502 11.4978 108 15.8125 108H100.188C104.502 108 108 104.502 108 100.188V15.8125C108 11.4978 104.502 8 100.188 8Z" fill="#3178C6"/>
<path id="Vector_2" fill-rule="evenodd" clip-rule="evenodd" d="M64.8995 83.7843V94.2253C66.5976 95.0955 68.606 95.748 70.9244 96.1831C73.2428 96.6182 75.6864 96.8356 78.2554 96.8356C80.7587 96.8356 83.1373 96.5963 85.3903 96.1177C87.6433 95.6391 89.6192 94.8506 91.3169 93.7524C93.015 92.6539 94.3593 91.2181 95.3501 89.4452C96.3405 87.6727 96.8357 85.4813 96.8357 82.871C96.8357 80.9786 96.5526 79.3198 95.9867 77.8951C95.4208 76.4703 94.6042 75.2031 93.5375 74.094C92.471 72.9845 91.1918 71.9896 89.7009 71.1084C88.2096 70.2276 86.5278 69.3956 84.6554 68.6127C83.2839 68.0468 82.0542 67.4979 80.9655 66.9649C79.8772 66.4319 78.9518 65.8883 78.19 65.3333C77.428 64.7788 76.8401 64.1913 76.4266 63.5713C76.013 62.9514 75.8062 62.2502 75.8062 61.4669C75.8062 60.749 75.9911 60.1022 76.3612 59.5257C76.7313 58.9492 77.2541 58.4544 77.9288 58.0412C78.6036 57.6277 79.4307 57.3071 80.4106 57.0784C81.39 56.8501 82.4787 56.7359 83.6759 56.7359C84.5469 56.7359 85.4666 56.8013 86.4351 56.9317C87.404 57.0621 88.3782 57.2633 89.358 57.5354C90.3375 57.8072 91.2897 58.1497 92.2151 58.5633C93.1401 58.9765 93.9949 59.455 94.7785 59.9986V50.243C93.1893 49.634 91.453 49.1826 89.5701 48.8889C87.6872 48.5952 85.5264 48.4485 83.0881 48.4485C80.6064 48.4485 78.2555 48.715 76.0349 49.248C73.8144 49.7806 71.8604 50.6127 70.1733 51.7437C68.4862 52.8752 67.1529 54.3162 66.173 56.0672C65.1936 57.8182 64.7037 59.9117 64.7037 62.3481C64.7037 65.4584 65.6015 68.1122 67.3978 70.3092C69.1938 72.5059 71.9201 74.3658 75.5775 75.8885C77.0144 76.476 78.3534 77.0521 79.594 77.618C80.8351 78.1835 81.9072 78.7706 82.8106 79.3796C83.7141 79.9886 84.4271 80.652 84.9495 81.3699C85.4719 82.0877 85.7331 82.9035 85.7331 83.8172C85.7331 84.4912 85.5698 85.1168 85.2432 85.6933C84.917 86.2694 84.4214 86.7699 83.7576 87.1941C83.0938 87.6182 82.2663 87.9497 81.2759 88.189C80.2854 88.4283 79.126 88.5482 77.798 88.5482C75.5341 88.5482 73.292 88.1512 71.0715 87.357C68.8506 86.5632 66.7934 85.3724 64.8995 83.7843ZM47.4968 57.8016H60.9234V49.2045H23.499V57.8016H36.8602V96.0795H47.4968V57.8016Z" fill="white"/>
</g>
</g>
</svg>
